<?xml version="1.0" encoding="UTF-8" standalone="no"?>
<!-- Created with Inkscape (http://www.inkscape.org/) -->

<svg
   xmlns:dc="http://purl.org/dc/elements/1.1/"
   xmlns:cc="http://creativecommons.org/ns#"
   xmlns:rdf="http://www.w3.org/1999/02/22-rdf-syntax-ns#"
   xmlns:svg="http://www.w3.org/2000/svg"
   xmlns="http://www.w3.org/2000/svg"
   xmlns:sodipodi="http://sodipodi.sourceforge.net/DTD/sodipodi-0.dtd"
   xmlns:inkscape="http://www.inkscape.org/namespaces/inkscape"
   width="207.74272mm"
   height="22.326977mm"
   viewBox="0 0 208.0395 22.326977"
   id="svg5476"
   sodipodi:docname="liventer_s.svg"
   inkscape:version="0.92.2 (5c3e80d, 2017-08-06)"
   version="1.1">
  <sodipodi:namedview
     pagecolor="#ffffff"
     bordercolor="#666666"
     borderopacity="1"
     objecttolerance="10"
     gridtolerance="10"
     guidetolerance="10"
     inkscape:pageopacity="0"
     inkscape:pageshadow="2"
     inkscape:window-width="2560"
     inkscape:window-height="1387"
     id="namedview854"
     showgrid="false"
     inkscape:zoom="8.6167369"
     inkscape:cx="-9.2147075"
     inkscape:cy="-3.704781"
     inkscape:window-x="-8"
     inkscape:window-y="-8"
     inkscape:window-maximized="1"
     inkscape:current-layer="layer1" />
  <defs
     id="defs5470" />
  <metadata
     id="metadata5473">
    <rdf:RDF>
      <cc:Work
         rdf:about="">
        <dc:format>image/svg+xml</dc:format>
        <dc:type
           rdf:resource="http://purl.org/dc/dcmitype/StillImage" />
        <dc:title></dc:title>
        <cc:license
           rdf:resource="http://creativecommons.org/licenses/by/4.0/" />
      </cc:Work>
      <cc:License
         rdf:about="http://creativecommons.org/licenses/by/4.0/">
        <cc:permits
           rdf:resource="http://creativecommons.org/ns#Reproduction" />
        <cc:permits
           rdf:resource="http://creativecommons.org/ns#Distribution" />
        <cc:requires
           rdf:resource="http://creativecommons.org/ns#Notice" />
        <cc:requires
           rdf:resource="http://creativecommons.org/ns#Attribution" />
        <cc:permits
           rdf:resource="http://creativecommons.org/ns#DerivativeWorks" />
      </cc:License>
    </rdf:RDF>
  </metadata>
  <g
     inkscape:label="Layer 1"
     inkscape:groupmode="layer"
     id="layer1"
     transform="translate(-0.97657843,-0.83865778)">
    <path
       style="fill:#7bc7d9;fill-opacity:1;stroke:none;stroke-width:0.57305294px;stroke-linecap:butt;stroke-linejoin:miter;stroke-opacity:1"
       d="M 0.98561043,0.70009043 H 7.28084 V 12.711652 c 0,0 -0.05436,1.71853 1.7547012,1.71853 0.4160627,0 1.3386588,-0.01732 1.8089768,-0.01732 v 4.033996 H 5.4899692 c 0,2e-6 -4.51339077,-0.14468 -4.51339077,-5.074177 0,-4.9294311 0.00865,-12.67182457 0.00865,-12.67182457 z"
       id="path5086-2"
       inkscape:connector-curvature="0"
       sodipodi:nodetypes="cccscccscc" />
    <path
       style="fill:#7bc7d9;fill-opacity:1;stroke:none;stroke-width:0.57305294px;stroke-linecap:butt;stroke-linejoin:miter;stroke-opacity:1"
       d="m 13.406807,5.8737424 h 5.553529 V 18.409902 h -5.535444 z"
       id="path5088-9"
       inkscape:connector-curvature="0"
       sodipodi:nodetypes="ccccc" />
    <ellipse
       style="opacity:0;fill:#7bc7d9;fill-opacity:1;stroke:none;stroke-width:0.57305294;stroke-opacity:1"
       id="path5090-4"
       cx="16.210722"
       cy="3.051754"
       rx="2.6410985"
       ry="2.2069454" />
    <path
       style="fill:#7bc7d9;fill-opacity:1;stroke:none;stroke-width:0.57305294px;stroke-linecap:butt;stroke-linejoin:miter;stroke-opacity:1"
       d="m 21.627971,5.8873664 v 5.1676966 l 4.285737,7.423107 h 5.89619 l 4.133237,-7.158956 V 5.8617874 h -5.156546 v 5.1676976 l -1.95004,3.377565 -1.954007,-3.384475 V 5.8873664 Z"
       id="path5104-4"
       inkscape:connector-curvature="0"
       sodipodi:nodetypes="cccccccccccc" />
    <path
       style="fill:#7bc7d9;fill-opacity:1;stroke:none;stroke-width:0.57305294px;stroke-linecap:butt;stroke-linejoin:miter;stroke-opacity:1"
       d="m 55.354311,18.391818 h 5.246019 v -7.308251 c 0,-1.9235304 4.033995,-2.0622094 4.033995,0 v 7.290166 h 5.119402 V 9.9439303 c 0,0 0.298675,-4.0444349 -7.005162,-4.0444349 -7.303807,0 -7.352624,4.2450576 -7.352624,4.2450576 z"
       id="path5110-0"
       inkscape:connector-curvature="0"
       sodipodi:nodetypes="ccsscccscc" />
    <path
       style="fill:#7bc7d9;fill-opacity:1;stroke:none;stroke-width:0.57305294px;stroke-linecap:butt;stroke-linejoin:miter;stroke-opacity:1"
       d="M 73.033148,1.8578328 V 13.688501 c 0,0 -0.18085,4.811869 4.811854,4.811869 4.992734,0 3.871168,0 3.871168,0 v -4.124464 c 0,0 -3.374797,0.155292 -3.374797,-1.948438 0,-2.103666 0,-2.4654527 0,-2.4654527 h 3.447156 V 5.9099134 H 78.35151 V 1.8216418 Z"
       id="path5112-3"
       inkscape:connector-curvature="0" />
    <path
       inkscape:connector-curvature="0"
       style="fill:#7bc7d9;fill-opacity:1;stroke:none;stroke-width:0.57305294px;stroke-linecap:butt;stroke-linejoin:miter;stroke-opacity:1"
       d="m 91.986299,5.7594377 c -3.807067,0 -7.700404,2.0313738 -7.700404,6.9068563 0,2.681561 2.916096,5.705905 6.932599,5.705905 5.193271,0 7.930963,-2.072841 7.930963,-2.072841 l -1.458373,-2.967121 c 0,0 -4.270839,2.018661 -5.55145,1.279302 l 7.802259,-6.0383221 c 0,0 -1.994827,-2.8137792 -7.955594,-2.8137792 z m 0.08395,4.1210566 c 0.846936,0.0042 1.476288,0.4835117 1.476288,0.4835117 l -3.402507,2.737671 c 0,0 -1.27977,-1.048894 0.255189,-2.507107 0.575619,-0.54683 1.162879,-0.7163297 1.67103,-0.7140757 z"
       id="path5106-0-8" />
    <path
       style="fill:#7bc7d9;fill-opacity:1;stroke:none;stroke-width:0.57305294px;stroke-linecap:butt;stroke-linejoin:miter;stroke-opacity:1"
       d="m 108.15039,18.391818 h -5.75253 v -8.068016 c 0,0 0.10846,-4.7395043 4.73951,-4.7395043 4.63097,0 3.79885,0 3.79885,0 v 4.2329936 c 0,0 -2.82199,-0.108507 -2.82199,2.8219977 0,2.930529 0.0361,5.752529 0.0361,5.752529 z"
       id="path5178-1"
       inkscape:connector-curvature="0" />
    <path
       style="fill:#7bc7d9;fill-opacity:1;stroke:none;stroke-width:0.57305294px;stroke-linecap:butt;stroke-linejoin:miter;stroke-opacity:1"
       d="M 141.93035,0.70009043 V 5.2948717 h -7.34442 c 0,0 -4.5767,-0.07234 -4.5767,4.5766966 0,4.6490607 4.0521,4.0521027 4.0521,4.0521027 h 2.08033 V 8.0806762 h 5.75252 V 18.428008 h -8.57452 c 0,0 -9.1534,-0.687424 -9.1534,-9.1533974 0,-8.46598817 8.57452,-8.57452017 8.57452,-8.57452017 z"
       id="path5180-3"
       inkscape:connector-curvature="0" />
    <path
       style="fill:#7bc7d9;fill-opacity:1;stroke:none;stroke-width:0.57305294px;stroke-linecap:butt;stroke-linejoin:miter;stroke-opacity:1"
       d="m 191.75849,23.058963 h 5.644 V 11.915694 c 0,0 0.14468,-2.1888497 2.65919,-2.1888497 3.20187,0 3.02974,2.0748377 3.02974,2.0748377 0,0 0.42867,2.250253 -2.57587,2.250253 h -1.95532 v 4.303712 h 3.94355 c 0,0 6.51229,0.578872 6.51229,-6.512293 0,-6.1866953 -5.96958,-5.9696116 -5.96958,-5.9696116 h -4.81188 c 0,0 -6.47612,0.325617 -6.47612,6.4761216 z"
       id="path5182-4"
       inkscape:connector-curvature="0"
       sodipodi:nodetypes="cccscscccsccsc" />
    <path
       style="fill:#7bc7d9;fill-opacity:1;stroke:none;stroke-width:0.57395542;stroke-linecap:butt;stroke-linejoin:miter;stroke-miterlimit:4;stroke-dasharray:none;stroke-opacity:1"
       d="m 150.56431,18.391818 h -5.75252 v -8.068016 c 0,0 0.10846,-4.7395043 4.7395,-4.7395043 4.63098,0 3.79886,0 3.79886,0 v 4.2329936 c 0,0 -2.82201,-0.108507 -2.82201,2.8219977 0,2.930529 0.0362,5.752529 0.0362,5.752529 z"
       id="path5178-9-7"
       inkscape:connector-curvature="0" />
    <path
       style="fill:#7bc7d9;fill-opacity:1;stroke:none;stroke-width:0.57305294px;stroke-linecap:butt;stroke-linejoin:miter;stroke-opacity:1"
       d="m 188.75748,5.7554647 h -5.24602 v 7.3082483 c 0,1.923552 -4.03402,2.062233 -4.03402,0 V 5.7735714 h -5.11938 v 8.4298006 c 0,0 -0.29867,4.044416 7.00514,4.044416 7.30384,0 7.35266,-4.245041 7.35266,-4.245041 z"
       id="path5110-1-2"
       inkscape:connector-curvature="0"
       sodipodi:nodetypes="ccsscccscc" />
    <path
       inkscape:connector-curvature="0"
       style="opacity:1;fill:#7bc7d9;fill-opacity:1;stroke:none;stroke-width:0.58468974;stroke-linejoin:round;stroke-miterlimit:4;stroke-dasharray:none;stroke-opacity:1"
       d="m 163.61904,5.5210427 a 8.4335958,6.3933776 0 0 0 -8.43351,6.3931183 8.4335958,6.3933776 0 0 0 8.43351,6.393122 8.4335958,6.3933776 0 0 0 8.4335,-6.393122 8.4335958,6.3933776 0 0 0 -8.4335,-6.3931183 z m -0.006,4.1355996 a 3.1175863,2.3633933 0 0 1 3.11711,2.3638427 3.1175863,2.3633933 0 0 1 -3.1171,2.362728 3.1175863,2.3633933 0 0 1 -3.11709,-2.362728 3.1175863,2.3633933 0 0 1 3.11709,-2.3638427 z"
       id="path5232-7" />
    <ellipse
       style="opacity:0.85197365;fill:#7bc7d9;fill-opacity:1;stroke:none;stroke-width:0.51656443;stroke-linejoin:round;stroke-miterlimit:4;stroke-dasharray:none;stroke-opacity:1"
       id="path5232-9-2-5"
       cx="16.173574"
       cy="2.9745369"
       rx="2.8058519"
       ry="2.1270726" />
    <path
       inkscape:connector-curvature="0"
       style="fill:#7bc7d9;fill-opacity:1;stroke:none;stroke-width:0.57305294px;stroke-linecap:butt;stroke-linejoin:miter;stroke-opacity:1"
       d="m 45.762855,5.7589517 c -3.807059,0 -7.700406,2.0313898 -7.700406,6.9068693 0,2.681564 2.916106,5.705898 6.932602,5.705898 5.193279,0 7.930982,-2.072846 7.930982,-2.072846 l -1.458389,-2.967112 c 0,0 -4.270833,2.018655 -5.551446,1.279293 l 7.802261,-6.0383141 c 0,0 -1.994831,-2.8137882 -7.955604,-2.8137882 z m 0.08403,4.1210646 c 0.846942,0.0044 1.476281,0.4835067 1.476281,0.4835067 l -3.402494,2.737681 c 0,0 -1.27977,-1.048909 0.25518,-2.507103 0.575623,-0.546838 1.162879,-0.7163387 1.671033,-0.7140847 z"
       id="path5106-0-8-9" />
    <rect
       style="opacity:1;fill:#7bc7d9;fill-opacity:1;stroke-width:0.17818461"
       id="rect1401"
       width="187.69835"
       height="1.0436763"
       x="0.98517233"
       y="22.015287" />
  </g>
</svg>
